<svg id="Layer_1" data-name="Layer 1" xmlns="http://www.w3.org/2000/svg" viewBox="0 0 1371.45 708.06"><defs><style>.cls-1{font-size:87.65px;font-family:Poppins-SemiBold, Poppins;font-weight:600;letter-spacing:0.11em;}.cls-1,.cls-3{fill:#fff;}.cls-2{fill:#38b000;}</style></defs><text class="cls-1" transform="translate(32.71 641.61)">KB ELEOS RESOURCES LTD</text><path class="cls-2" d="M379.14,225A175.26,175.26,0,0,1,216.31,405.92l-183.93.6V302.88l181.84-1.07a21.56,21.56,0,0,0,4.16-.4,71.77,71.77,0,1,0-86.17-70.31H28.71A175.29,175.29,0,0,1,212.27,56C302.88,60.18,376.06,134.33,379.14,225Z"/><path class="cls-2" d="M768.77,362.24a175.27,175.27,0,0,0-162.83-181L422,180.7V284.34l181.83,1.07a20.66,20.66,0,0,1,4.16.4,71.77,71.77,0,1,1-86.16,70.31H418.33A175.29,175.29,0,0,0,601.9,531.21C692.51,527,765.68,452.89,768.77,362.24Z"/><rect class="cls-2" x="32.71" y="427.9" width="346.53" height="103.5"/><rect class="cls-2" x="422.08" y="55.82" width="346.53" height="103.5"/><rect class="cls-2" x="625.33" y="241.86" width="475.58" height="103.5" transform="translate(569.52 1156.73) rotate(-90)"/><path class="cls-2" d="M959,128.08a10.75,10.75,0,0,1-1.37-.13V231.61c99.53,3.36,181.28-76.37,181.28-175.17H1035.41A71.77,71.77,0,0,1,959,128.08Z"/><rect class="cls-2" x="1071.08" y="309.7" width="339.9" height="103.5" transform="translate(879.58 1602.48) rotate(-90)"/><rect class="cls-2" x="957.64" y="252.66" width="385.12" height="103.5"/><path class="cls-3" d="M1211.22,51.8l-8.79-5-1.84,1.09,4.49,7.59-3.91,2.31-11.52-19.48,7.31-4.33a10,10,0,0,1,4.32-1.48,6.41,6.41,0,0,1,3.66.74,7,7,0,0,1,3.53,6.69,6.68,6.68,0,0,1-2.06,4.1l9.33,5.15Zm-12.37-6.89,3.27-1.93a3.81,3.81,0,0,0,1.92-2.17,3.31,3.31,0,0,0-.48-2.6,3.17,3.17,0,0,0-2-1.62,3.93,3.93,0,0,0-2.81.66l-3.27,1.93Z"/><path class="cls-3" d="M1223.93,28.49a10.84,10.84,0,0,1,3.74-4.46,12.34,12.34,0,0,1,12.5-.64,10.16,10.16,0,0,1,4.45,5l-5.21.46a5.44,5.44,0,0,0-2.39-2.23,6.48,6.48,0,0,0-3.32-.52,6.78,6.78,0,0,0-3.42,1.23,6.34,6.34,0,0,0-2.16,2.82,8.65,8.65,0,0,0-.51,4,8.61,8.61,0,0,0,1.21,3.85,6.32,6.32,0,0,0,2.62,2.41A6.8,6.8,0,0,0,1235,41a6.29,6.29,0,0,0,3.17-1.12,5.43,5.43,0,0,0,2-2.63l5.2-.46a10.08,10.08,0,0,1-3.48,5.73,11.49,11.49,0,0,1-6.46,2.51,11.64,11.64,0,0,1-6-1A10.91,10.91,0,0,1,1225,40.4a11.77,11.77,0,0,1-2-5.81A11.92,11.92,0,0,1,1223.93,28.49Z"/><path class="cls-3" d="M1256.12,45.82a2.48,2.48,0,0,1-.27-2,2.55,2.55,0,0,1,1.26-1.63,2.8,2.8,0,0,1,2.16-.2,2.67,2.67,0,0,1,1.71,1.25,2.72,2.72,0,0,1-1,3.66,2.69,2.69,0,0,1-2.11.22A2.82,2.82,0,0,1,1256.12,45.82Zm3.51-13a2.67,2.67,0,0,1,1-3.66,2.78,2.78,0,0,1,2.15-.2,2.62,2.62,0,0,1,1.71,1.25,2.69,2.69,0,0,1-1,3.66,2.68,2.68,0,0,1-2.11.22A2.83,2.83,0,0,1,1259.63,32.86Z"/><path class="cls-3" d="M1279.16,34.16l2.1-3.62,6.76,3.93-11.88,20.44-4-2.35,9.78-16.82Z"/><path class="cls-3" d="M1292.59,63.23a3.71,3.71,0,0,0,1,2.39,3.09,3.09,0,0,0,3.16,1.16,12.76,12.76,0,0,0,4.89-2.94,4.92,4.92,0,0,1-2.59-.55,7.3,7.3,0,0,1-2.32-1.84A8,8,0,0,1,1295,58a6.33,6.33,0,0,1,.25-3.67,8.18,8.18,0,0,1,2.54-3.41,7.66,7.66,0,0,1,5.75-2.05,7.92,7.92,0,0,1,5.39,3.09q3,3.52,1.93,6.87T1305.28,66a27.54,27.54,0,0,1-5.75,3.9,6.78,6.78,0,0,1-8.9-2.06,8.34,8.34,0,0,1-1.93-3.72,6.49,6.49,0,0,1,.2-3.54,7.41,7.41,0,0,1,1.88-2.93l2.72,3.23A3.48,3.48,0,0,0,1292.59,63.23Zm10.09-2.08a3.88,3.88,0,0,0,2.76-1.06,4.07,4.07,0,0,0,1.61-2.69,3.69,3.69,0,0,0-1-2.8,3.64,3.64,0,0,0-2.62-1.42,4.52,4.52,0,0,0-4.36,3.63,3.81,3.81,0,0,0,1.09,3A3.46,3.46,0,0,0,1302.68,61.15Z"/><path class="cls-3" d="M1322.53,78.12a8.45,8.45,0,0,1,3.35,4.82,9.14,9.14,0,0,1,.4,4.12,5.86,5.86,0,0,1-1.38,3.09,6,6,0,0,1-2.8,1.77,5.64,5.64,0,0,1-3.61,0,5.17,5.17,0,0,1-2.56-1.84l-.12,0a5.43,5.43,0,0,1-1.12,3.42,6.47,6.47,0,0,1-3.34,2.13,6.76,6.76,0,0,1-3.58.18,6,6,0,0,1-3-1.81,10.57,10.57,0,0,1-2-10,6.94,6.94,0,0,1,4.48-3.94l1.31,4.22a3.49,3.49,0,0,0-2.11,1.79,3.93,3.93,0,0,0-.09,3,3.4,3.4,0,0,0,1.64,2.16,3.3,3.3,0,0,0,2.54.15,3.16,3.16,0,0,0,2.3-2,6.94,6.94,0,0,0-.33-3.91l-.28-.9,3.57-1.1.28.9c.9,2.93,2.34,4.09,4.3,3.49a2.84,2.84,0,0,0,1.83-1.43,3.35,3.35,0,0,0,0-2.51,3.19,3.19,0,0,0-1.48-2,3.31,3.31,0,0,0-2.29-.3l-1.31-4.24A6.57,6.57,0,0,1,1322.53,78.12Z"/><path class="cls-3" d="M1310,114.12a3.79,3.79,0,0,0-1,2.39,3.09,3.09,0,0,0,1.38,3.07,12.64,12.64,0,0,0,5.51,1.45,4.9,4.9,0,0,1-1.41-2.24,7.21,7.21,0,0,1-.3-2.94,8.12,8.12,0,0,1,1.23-3.65,6.34,6.34,0,0,1,2.8-2.38,8.26,8.26,0,0,1,4.21-.56,7.68,7.68,0,0,1,5.49,2.69,7.92,7.92,0,0,1,1.54,6q-.45,4.57-3.57,6.18c-2.08,1.07-5.09,1.4-9,1a27.24,27.24,0,0,1-6.8-1.4,7.48,7.48,0,0,1-3.82-2.89,7.57,7.57,0,0,1-.92-4.93,8.5,8.5,0,0,1,1.32-4,6.58,6.58,0,0,1,2.67-2.32,7.32,7.32,0,0,1,3.41-.69l-.41,4.19A3.53,3.53,0,0,0,1310,114.12Zm8.54,5.77a3.88,3.88,0,0,0,2.68,1.24,4.08,4.08,0,0,0,3.06-.72,3.74,3.74,0,0,0,1.32-2.66,3.63,3.63,0,0,0-.81-2.86,4.51,4.51,0,0,0-5.65-.59,3.81,3.81,0,0,0-1.37,2.84A3.49,3.49,0,0,0,1318.51,119.89Z"/><path class="cls-3" d="M1319,141.13l3.77,1.8-3.36,7.06-21.34-10.17,2-4.21,17.56,8.36Z"/><path class="cls-3" d="M1296.37,174l-8.48-20.26,3.21-3.31,8.06,20,7.73-8,2.79,2.72-10.9,11.2Z"/><circle class="cls-2" cx="1241.03" cy="106.3" r="38.26"/></svg>