<svg id="Layer_1" data-name="Layer 1" xmlns="http://www.w3.org/2000/svg" viewBox="0 0 1361.1 693.59"><defs><style>.cls-1{font-size:87.65px;font-family:Poppins-SemiBold, Poppins;font-weight:600;letter-spacing:0.11em;}.cls-1,.cls-3{fill:#3a3a3a;}.cls-2{fill:#38b000;}</style></defs><text class="cls-1" transform="translate(25.04 641.61)">KB ELEOS RESOURCES LTD</text><path class="cls-2" d="M371.47,225A175.26,175.26,0,0,1,208.64,405.92l-183.93.6V302.88l181.84-1.07a21.56,21.56,0,0,0,4.16-.4,71.77,71.77,0,1,0-86.17-70.31H21A175.29,175.29,0,0,1,204.6,56C295.21,60.18,368.39,134.33,371.47,225Z"/><path class="cls-2" d="M761.1,362.24a175.27,175.27,0,0,0-162.83-181l-183.93-.59V284.34l181.83,1.07a20.66,20.66,0,0,1,4.16.4,71.77,71.77,0,1,1-86.16,70.31H410.66A175.29,175.29,0,0,0,594.23,531.21C684.84,527,758,452.89,761.1,362.24Z"/><rect class="cls-2" x="25.04" y="427.9" width="346.53" height="103.5"/><rect class="cls-2" x="414.41" y="55.82" width="346.53" height="103.5"/><rect class="cls-2" x="617.66" y="241.86" width="475.58" height="103.5" transform="translate(561.85 1149.06) rotate(-90)"/><path class="cls-2" d="M951.34,128.08A10.75,10.75,0,0,1,950,128V231.61c99.53,3.36,181.28-76.37,181.28-175.17H1027.74A71.77,71.77,0,0,1,951.34,128.08Z"/><rect class="cls-2" x="1063.41" y="309.7" width="339.9" height="103.5" transform="translate(871.91 1594.81) rotate(-90)"/><rect class="cls-2" x="949.97" y="252.66" width="385.12" height="103.5"/><path class="cls-3" d="M1203.55,51.8l-8.79-5-1.84,1.09,4.49,7.59-3.91,2.31L1182,38.26l7.31-4.33a10,10,0,0,1,4.33-1.48,6.4,6.4,0,0,1,3.65.74,7,7,0,0,1,3.53,6.69,6.68,6.68,0,0,1-2.06,4.1l9.33,5.15Zm-12.37-6.89,3.27-1.93a3.81,3.81,0,0,0,1.92-2.17,3.31,3.31,0,0,0-.48-2.6,3.17,3.17,0,0,0-2-1.62,3.93,3.93,0,0,0-2.81.66l-3.27,1.93Z"/><path class="cls-3" d="M1216.26,28.49A10.84,10.84,0,0,1,1220,24a12.34,12.34,0,0,1,12.5-.64,10.16,10.16,0,0,1,4.45,5l-5.2.46a5.52,5.52,0,0,0-2.4-2.23,6.46,6.46,0,0,0-3.32-.52,6.78,6.78,0,0,0-3.42,1.23,6.34,6.34,0,0,0-2.16,2.82,8.65,8.65,0,0,0-.51,4,8.61,8.61,0,0,0,1.21,3.85,6.32,6.32,0,0,0,2.62,2.41,6.8,6.8,0,0,0,3.59.61,6.29,6.29,0,0,0,3.17-1.12,5.43,5.43,0,0,0,2-2.63l5.2-.46a10.07,10.07,0,0,1-3.47,5.73,12.43,12.43,0,0,1-12.43,1.56,10.91,10.91,0,0,1-4.47-3.72,11.77,11.77,0,0,1-2-5.81A11.92,11.92,0,0,1,1216.26,28.49Z"/><path class="cls-3" d="M1248.45,45.82a2.48,2.48,0,0,1-.27-2,2.55,2.55,0,0,1,1.26-1.63,2.8,2.8,0,0,1,2.16-.2,2.67,2.67,0,0,1,1.71,1.25,2.72,2.72,0,0,1-1,3.66,2.69,2.69,0,0,1-2.11.22A2.82,2.82,0,0,1,1248.45,45.82Zm3.51-13a2.67,2.67,0,0,1,1-3.66,2.78,2.78,0,0,1,2.15-.2,2.62,2.62,0,0,1,1.71,1.25,2.69,2.69,0,0,1-1,3.66,2.66,2.66,0,0,1-2.1.22A2.82,2.82,0,0,1,1252,32.86Z"/><path class="cls-3" d="M1271.49,34.16l2.1-3.62,6.76,3.93-11.88,20.44-4-2.35,9.78-16.82Z"/><path class="cls-3" d="M1284.92,63.23a3.71,3.71,0,0,0,1,2.39,3.09,3.09,0,0,0,3.16,1.16,12.76,12.76,0,0,0,4.89-2.94,4.92,4.92,0,0,1-2.59-.55,7.3,7.3,0,0,1-2.32-1.84,8,8,0,0,1-1.75-3.42,6.33,6.33,0,0,1,.25-3.67,8.18,8.18,0,0,1,2.54-3.41,7.66,7.66,0,0,1,5.75-2.05,7.92,7.92,0,0,1,5.39,3.09q3,3.52,1.93,6.87T1297.61,66a27.54,27.54,0,0,1-5.75,3.9,6.78,6.78,0,0,1-8.9-2.06,8.34,8.34,0,0,1-1.93-3.72,6.58,6.58,0,0,1,.2-3.54,7.41,7.41,0,0,1,1.88-2.93l2.72,3.23A3.48,3.48,0,0,0,1284.92,63.23ZM1295,61.15a3.88,3.88,0,0,0,2.76-1.06,4.07,4.07,0,0,0,1.61-2.69,3.69,3.69,0,0,0-1-2.8,3.64,3.64,0,0,0-2.62-1.42,4.52,4.52,0,0,0-4.36,3.63,3.81,3.81,0,0,0,1.09,3A3.46,3.46,0,0,0,1295,61.15Z"/><path class="cls-3" d="M1314.86,78.12a8.45,8.45,0,0,1,3.35,4.82,9.14,9.14,0,0,1,.4,4.12,5.86,5.86,0,0,1-1.38,3.09,6,6,0,0,1-2.8,1.77,5.64,5.64,0,0,1-3.61,0,5.17,5.17,0,0,1-2.56-1.84l-.12,0a5.43,5.43,0,0,1-1.12,3.42,6.47,6.47,0,0,1-3.34,2.13,6.76,6.76,0,0,1-3.58.18,6,6,0,0,1-3-1.81,9.27,9.27,0,0,1-2-3.73,9.13,9.13,0,0,1,0-6.24,6.94,6.94,0,0,1,4.48-3.94l1.31,4.22a3.49,3.49,0,0,0-2.11,1.79,3.93,3.93,0,0,0-.09,3,3.4,3.4,0,0,0,1.64,2.16,3.3,3.3,0,0,0,2.54.15,3.16,3.16,0,0,0,2.3-2,6.94,6.94,0,0,0-.33-3.91l-.28-.9,3.57-1.1.28.9c.9,2.93,2.34,4.09,4.3,3.49a2.84,2.84,0,0,0,1.83-1.43,3.35,3.35,0,0,0,0-2.51,3.16,3.16,0,0,0-1.48-2,3.31,3.31,0,0,0-2.29-.3l-1.31-4.24A6.57,6.57,0,0,1,1314.86,78.12Z"/><path class="cls-3" d="M1302.3,114.12a3.79,3.79,0,0,0-1,2.39,3.09,3.09,0,0,0,1.38,3.07,12.64,12.64,0,0,0,5.51,1.45,4.9,4.9,0,0,1-1.41-2.24,7.21,7.21,0,0,1-.3-2.94,8.12,8.12,0,0,1,1.23-3.65,6.34,6.34,0,0,1,2.8-2.38,8.26,8.26,0,0,1,4.21-.56,7.68,7.68,0,0,1,5.49,2.69,7.92,7.92,0,0,1,1.54,6q-.45,4.57-3.57,6.18c-2.08,1.07-5.09,1.4-9,1a27.24,27.24,0,0,1-6.8-1.4,6.79,6.79,0,0,1-4.74-7.82,8.5,8.5,0,0,1,1.32-4,6.58,6.58,0,0,1,2.67-2.32A7.32,7.32,0,0,1,1305,109l-.41,4.19A3.53,3.53,0,0,0,1302.3,114.12Zm8.54,5.77a3.88,3.88,0,0,0,2.68,1.24,4.08,4.08,0,0,0,3.06-.72,3.74,3.74,0,0,0,1.32-2.66,3.63,3.63,0,0,0-.81-2.86,4.51,4.51,0,0,0-5.65-.59,3.81,3.81,0,0,0-1.37,2.84A3.49,3.49,0,0,0,1310.84,119.89Z"/><path class="cls-3" d="M1311.33,141.13l3.77,1.8-3.36,7.06-21.34-10.17,2-4.21L1310,144Z"/><path class="cls-3" d="M1288.7,174l-8.48-20.26,3.21-3.31,8.06,20,7.73-8,2.79,2.72-10.9,11.2Z"/><circle class="cls-2" cx="1233.36" cy="106.3" r="38.26"/></svg>