<svg id="Layer_1" data-name="Layer 1" xmlns="http://www.w3.org/2000/svg" viewBox="0 0 1065.16 1065.16"><defs><style>.cls-1{fill:#fff;}</style></defs><path class="cls-1" d="M90.34,315.1c.73-1.8,1.53-3.58,2.16-5.41,6.76-19.59,24.58-32.36,44.75-32a45.86,45.86,0,0,1,43.47,33.64c8.89,31.44,17.26,63,25.86,94.56q23.88,87.58,47.9,175.14c.72,2.61,3.09,6.82,4.55,6.77,3.71-.15,8.68-1.23,10.75-3.84a64.42,64.42,0,0,1,30.78-21.82c-1.29-13.75-2.53-27.58-3.89-41.39-2.17-22.09-4.49-44.15-6.58-66.24-.44-4.69-1.21-7.37-7.13-8.21-13.51-1.91-22.74-12.92-23.28-26.59-.39-9.95-.39-19.93,0-29.88.54-14.43,10.42-25.25,24.8-26.94,4.47-.53,6.3-2.12,7.37-6.35,8.89-35.24,30.42-59.63,63.64-74.14a13.22,13.22,0,0,0,6.48-7.6c8-27.75,24.41-48.38,50-61.93a17.74,17.74,0,0,0,7.43-8.32c12.59-30.61,34.18-51.82,64.95-63.95a19.88,19.88,0,0,0,8.28-6.56c26.87-36.89,81.17-33.82,101.83,6.81,8.23,16.17,17.39,28.42,34.89,36.26,23.35,10.44,38.58,30.51,48.18,54.25,2,4.93,4.67,7.65,9.58,9.6,16.94,6.71,30.67,18,43.29,33.07l14.19-76.48c1.71-9.23,3.21-18.5,5.2-27.66,4-18.43,18.93-32.42,37.74-32.7,46.1-.67,92.22-.78,138.32,0,21.92.36,38.49,18.81,39.08,40.85.28,10.24.32,20.5,0,30.74a41.77,41.77,0,0,1-36.35,40.07,110.81,110.81,0,0,1-14.47.77c-30.43.07-60.86,0-92.54,0-26.38,140.63-52.71,281-79.33,422.94,7.51,0,14.17,0,20.84,0,21.6.1,32.72,11.11,32.74,32.55,0,35.83,0,71.67,0,108.75h9.48c24.48,0,49-.07,73.44,0,18.22.07,29.79,11.6,29.85,30,.13,34.73-.42,69.46.24,104.18.32,17.28-6,29-22.38,35H192.84c-25.06-8.7-33.66-27.2-34.15-52.66-.84-42.92-3.42-85.8-5.33-128.7-1.77-40.06-3.69-80.11-5.37-120.17-.24-5.74-1.24-8.86-8.18-10-11.82-1.94-20.19-12.5-20.89-24.87a296.27,296.27,0,0,1-.1-31.54c.82-16.08,12.19-26.52,28.38-26.87,2.78-.06,5.56,0,9.1,0-.8-3.66-1.31-6.42-2-9.12q-22.68-86.51-45.46-173c-5.93-22.42-12.3-44.73-18.48-67.09ZM317.6,447.17c3.68,37.08,7.15,73.29,11.09,109.45.26,2.38,3.83,4.67,6.23,6.51,8.48,6.46,17.84,12,25.41,19.33,4.08,4,7.38,5.87,12.9,5.84q55.49-.27,111-.06c17.29.06,28.79,11.36,29.43,28.69.25,6.82.07,13.66.06,20.49,0,22.3-6.62,30.77-29,36.16q-3.18,69.57-6.39,139.83h63.3v-9.57q0-49.5,0-99c0-20.87,11.34-32.19,32.18-32.25,24.76-.08,49.51,0,74.27,0,3,0,6-.26,8.95-.4,7.06-38.12,14-75.27,20.82-112.44,6.87-37.34,13.67-74.69,20.59-112.52ZM428.26,954.73c.22-3.16.51-5.37.51-7.58q0-51.24,0-102.48c0-12.81,5.25-22.28,16.74-28.51a10.7,10.7,0,0,0,4.72-7.6c2.15-43.21,4-86.44,5.8-129.66a40.31,40.31,0,0,0-.49-5.6,16.26,16.26,0,0,0-3-.67c-39.29,0-78.57,0-117.86-.16-4.82,0-6.28,2-6.86,6.41C316,769.15,274.71,843.19,203.22,899.48c-12.66,10-18.12,19-16,35,2.22,16.62,4.46,20.26,21.42,20.26q105,0,210.08,0ZM319.32,362.5h11.94q179.72,0,359.43,0c7.6,0,17.24,2.07,22.18-1.72,4.48-3.43,3.29-13.73,5.55-20.69,7.78-24-2.74-41.9-18.83-57.93A71.66,71.66,0,0,0,664,262.9c-5.17-1.15-7.42-3.4-8.72-8.63-6.38-25.79-20.77-47.29-45.87-55.54-19.1-6.28-27.75-18.17-34.35-34.5-1-2.36-2.32-4.56-3.4-6.87-5.91-12.67-15.32-20.47-29.74-20.53s-23.72,7.62-30.07,20.14a15.26,15.26,0,0,1-8.37,7.15C471,173.24,450.77,194,442,226.47c-.74,2.73-3.43,6.14-6,7-27.48,9.25-43.39,28.4-48.34,56.51-1.75,9.93-6.25,14.15-16.12,17.13C344.68,315.23,327.79,334,319.32,362.5ZM570.5,813.34H766.69V701.53H570.5ZM457.68,954.15H653.75V842.37H457.68ZM879.87,842.31H683.54v111.6H879.87ZM175.64,672.94c3.13,68.59,6.22,136.21,9.35,204.84,65.11-48,109.51-132.52,114.49-204.84Zm533.24-282H288.65v27.55h415C705.41,409.3,707.08,400.43,708.88,390.91ZM763.5,250.16Q724.65,461,685.81,672h27.76C740,531.25,766.25,391,792.67,250.16ZM226.68,587.94c-.72-3.28-1.16-5.78-1.83-8.22q-27.61-101.13-55.27-202.25c-5.32-19.45-10.44-39-16.05-58.34-2.74-9.44-10.18-13.92-19.48-12.83-8.5,1-14.72,7.38-15.15,16.74a54.43,54.43,0,0,0,1.59,16q24.33,93.63,49.05,187.15,8.11,30.87,16.39,61.76ZM769.09,220.19c.81.4,1.07.64,1.32.64,50.89.11,101.79.31,152.68.21,8,0,13-5.37,13.4-13.7.45-9.36.45-18.78,0-28.14-.39-9.13-5.57-14.29-14.67-14.32q-65.26-.25-130.53,0c-7.44,0-12.58,4-14.07,11.3C774.26,190.84,771.77,205.62,769.09,220.19ZM147.14,644.11H265.92c-2.6-9.35-5.07-18.25-7.65-27.52H147.14ZM365.5,644h119V616.74H373.08c-1,5.16-1.53,9.69-2.74,14S367.29,639.19,365.5,644ZM288,616.12a28.19,28.19,0,0,0,27.89,28.41,28.69,28.69,0,0,0,28.38-28.15,28.13,28.13,0,0,0-28.12-28.16A27.65,27.65,0,0,0,288,616.12Z"/><path class="cls-1" d="M428.35,333.73H402.19c-5.07-26.83,26-58.25,55.06-55.12,0,7.52.21,15.15-.16,22.75-.08,1.67-2,4.43-3.38,4.67C438.27,308.7,430.91,318.67,428.35,333.73Z"/><path class="cls-1" d="M598.07,278.22c30.66-.79,56.57,25.1,55.9,55.16h-27c-2.47-14.38-9.62-24.56-25.08-27.29-1.47-.26-3.53-2.87-3.61-4.48C597.86,294,598.07,286.35,598.07,278.22Z"/><path class="cls-1" d="M541.2,193.73v27c-16.37,2.4-26,11.69-28.1,28.46H486.69C481.36,223.11,510.34,193.26,541.2,193.73Z"/></svg>