<svg id="Layer_1" data-name="Layer 1" xmlns="http://www.w3.org/2000/svg" viewBox="0 0 1065.16 1065.16"><defs><style>.cls-1{fill:#fff;}</style></defs><path class="cls-1" d="M1000.73,955.26H47.08V281.9h953.65ZM903,925.64V522.08H622.2V925.64ZM319,460.72l-2.63,1.34q-9.09-9.48-18.19-19c-6.91-7.15-14.65-9-22.64-2.19-7.06,6-6.27,15.19,1.81,23.45,11.95,12.22,24.23,24.13,36.16,36.37,2.29,2.35,5.09,5.62,5.14,8.51.39,27,.23,54.09.23,83.27-23.13-13.34-44.74-25.31-65.72-38.29-4.94-3.06-9.32-9-11.23-14.56-4.78-13.91-8-28.35-11.82-42.59-4.09-15.28-10.33-20.75-20.59-18-9.64,2.61-12.22,10.44-8.37,25.14,1.89,7.21,3.61,14.46,5.9,23.7-7.48-4.24-12.78-7.41-18.23-10.31-9.78-5.22-17.76-3.74-22.36,4-4.75,7.95-1.79,16.17,8.05,22.19,5,3.08,10.16,6.08,15.27,9.14-1.08,1.52-1.24,2-1.52,2.1q-11.16,3.16-22.35,6.25c-12.27,3.39-17.39,10-15.13,19.45,2.19,9.18,10.36,12.74,22.62,9.53,15.76-4.12,31.41-8.67,47.22-12.58,3.85-1,9-1.68,12.09,0,23.4,12.94,46.45,26.51,71.37,40.9-25.13,14.48-48.82,28.33-72.8,41.66-2.46,1.37-6.75.14-10-.67-16.54-4.18-33-8.71-49.54-12.92-10.59-2.7-18.27.89-20.66,9.26-2.59,9.05,2.25,16.18,13.35,19.41,8.45,2.47,17,4.74,25.52,7.13-.45,1.12-.48,1.65-.75,1.82-5.25,3.26-10.58,6.4-15.79,9.73-9,5.75-11.79,14.18-6.8,21.6,5.59,8.31,13.21,8.62,21.46,4.29,5.83-3.08,11.54-6.39,19.22-10.67-2.89,10.85-5.26,19-7.22,27.26-2.77,11.64.66,19.14,9.57,21.77,8.59,2.54,15.9-2.51,19.11-13.82,4.54-16,8.59-32.23,13.16-48.27,1-3.53,2.42-8.15,5.15-9.79,23.15-13.94,46.65-27.3,71.78-41.84,0,29.15.2,56.2-.27,83.25-.05,3.17-3.39,6.7-5.95,9.35-11.63,12-23.62,23.64-35.29,35.59-8.18,8.38-9,17.28-1.89,23.42,8,7,15.76,5,22.62-2.09,6.1-6.28,11.94-12.81,17.9-19.23l3,1.63c0,6.82-.29,13.65.08,20.44.48,9,5.58,15,14.51,15.19,9.54.16,14.86-5.94,15.32-15.53.32-6.75.06-13.53.06-20.36,2,.18,2.43.08,2.62.26,5.89,5.64,11.7,11.35,17.61,17,8.76,8.31,16.83,9.16,23.52,2.6s6.14-14.95-2.2-23.5c-11.67-12-23.68-23.58-35.32-35.58-2.55-2.63-5.83-6.18-5.89-9.36-.47-27-.26-54-.26-83.07,25.21,14.57,48.73,27.93,71.89,41.88,2.71,1.62,4,6.33,5,9.89,4.55,16,8.85,32.16,13.06,48.3,2.47,9.48,7.69,15.49,18.13,13.83,9.18-1.46,13.26-9.7,10.75-21-2-8.88-4.46-17.65-7.17-28.25,8,4.46,13.9,8.07,20.11,11.18,7.91,4,15.57,3.37,20.38-4.62,5-8.31,2.55-15.76-5.54-21-5.8-3.76-11.83-7.14-19.62-11.8,10.77-3,19.6-5.24,28.32-7.86,10.33-3.1,14.82-10.12,12.53-19-2.19-8.44-10-12.28-20.43-9.62-16.91,4.33-33.73,9-50.66,13.26-3.18.79-7.42,1.52-9.95.11-23.62-13.24-47-27-71.73-41.28,23.23-13.48,44.77-26.43,66.84-38.41,4.78-2.6,11.8-3.27,17.21-2.11,15.52,3.32,30.73,8.13,46.11,12.17,12.27,3.22,20.45-.31,22.69-9.45,2.31-9.45-2.72-16-15-19.53-7.83-2.23-15.69-4.35-25.94-7.18,8-4.69,13.43-7.64,18.62-11,8.73-5.59,11.54-14.49,6.58-21.71-5.59-8.14-13.07-8.86-21.41-4.23-5.79,3.21-11.59,6.39-19.08,10.53,2.89-11.08,5.37-19.62,7.31-28.28,2.47-11-1.17-18.52-9.93-20.27-10.26-2.05-16.17,2.85-18.72,12.7-3.61,13.89-8.1,27.59-11,41.62-2.37,11.54-7.89,19-18.56,24.5-20.15,10.43-39.53,22.34-60.82,34.56,0-27.35-.35-52.52.29-77.66.13-5.09,2.85-11.11,6.33-14.92,11.53-12.6,24.12-24.22,36-36.54,7.49-7.79,7.78-16.76.85-22.57-7.47-6.25-15.06-5.25-21.8,1.52-6.47,6.5-12.73,13.2-19.07,19.82-2.62-8.05-2.37-14.87-2.68-21.66-.39-8.93-4.77-14.91-14.16-15.29-10-.4-15,5.55-15.63,15C318.6,447,319,453.88,319,460.72ZM893.62,364.5H631.84V437H893.62Z"/><path class="cls-1" d="M1001,175.93v80.44H47V175.93Z"/><path class="cls-1" d="M702.22,741.12c-7,0-14,.51-20.88-.1-9.9-.86-15.33-6.85-16-16.73-.58-9.4,5.92-17.74,15.7-18.26a424.19,424.19,0,0,1,44.11,0c9.9.5,16.3,8.53,15.91,18-.42,10-5.86,16-15.68,16.91C717.76,741.68,710,741.11,702.22,741.12Z"/></svg>