<svg id="Layer_1" data-name="Layer 1" xmlns="http://www.w3.org/2000/svg" viewBox="0 0 1065.16 1065.16"><defs><style>.cls-1{fill:#fff;}</style></defs><path class="cls-1" d="M47,548.21c30.52,2.49,61.2,3.78,91.55,7.67C329.37,580.3,499.64,651,642.12,782.59,704.77,840.43,755,907.89,791.39,985.27c2.23,4.74,4.29,9.57,7,15.64H787.2q-153.91,0-307.83.19c-7.89,0-11-2.58-13.92-9.8C398.54,826.63,278.19,725.93,103.69,690.82c-18.63-3.75-37.76-5-56.66-7.44Z"/><path class="cls-1" d="M47,739.71c51.14,4.39,100.51,15.87,147.12,37.71,96,45,166.7,115.25,210.42,212.18,1.5,3.34,2.75,6.79,4.57,11.31H396.88c-104.42,0-208.84-.27-313.25.25-17.28.09-29.64-5-36.6-21.14Z"/><path class="cls-1" d="M582.06,661.32c133.45-71.42,275.09-107.38,426.22-112.51v10.65q0,204.06,0,408.11c0,22.8-10.41,33.3-33.1,33.32-36.28.05-72.56-.1-108.83.14-5.56,0-8.11-1.8-10.2-6.93C802,861.18,712.55,756.54,597.59,672.46,592.81,669,588,665.55,582.06,661.32Z"/><path class="cls-1" d="M499.58,364l-127,13.74V273.87c-3.21.68-5,1.06-6.74,1.42-15.39,3.19-29.66-3.43-36.19-16.79-6.71-13.74-3.08-29.38,9.87-39.33C359.87,203.56,380.49,188.33,401,173q51.76-38.82,103.54-77.61c16.91-12.68,29.18-12.83,46-.24q81.44,61,162.82,122c11.58,8.65,17.61,19.6,14.74,34-2.45,12.32-10.25,21-22.55,23.82-6.73,1.53-14.1.27-22.23.27V377.83L555.73,364.05c0-15.27.17-31.71-.05-48.16-.2-15.87-10.56-27.6-25.07-28.92-17.22-1.57-30.69,10.7-31,28.64C499.38,331.85,499.58,348.11,499.58,364Z"/><path class="cls-1" d="M872.6,504.09c-27.83,5.76-54.24,10.56-80.31,16.74-90.5,21.45-176.28,55-256.85,101.6-5.53,3.2-9.53,3.51-15.21.22C418.56,563.85,309.43,526,193.69,506.74c-2.94-.49-5.83-1.33-10.77-2.48,109.51-57.85,224.84-83.13,346.05-83C649.55,421.47,764.2,447.11,872.6,504.09Z"/><path class="cls-1" d="M118.25,475.85c0-27.69-.19-54.24.15-80.79.08-6.17-1.66-9.12-7.53-11.77-36.62-16.57-55.65-45.37-56.19-85.51-.55-41.91-.39-83.83,0-125.74C55,124.66,90.69,85.21,136.4,80.87c47.14-4.48,88.81,25.53,99.09,71.82a116.06,116.06,0,0,1,2.3,24.21q.35,58.65.08,117.3c-.15,42.4-19.16,72.7-58.08,90.36-2.51,1.14-5.1,5.25-5.2,8.06-.5,15.31,0,30.65-.45,46-.09,3.1-2,7.54-4.4,9C153.3,457.06,136.49,465.93,118.25,475.85Z"/><path class="cls-1" d="M937.06,475.75c-18.52-10.07-36.08-19.4-53.32-29.28-1.86-1.07-2.61-5.33-2.65-8.13-.26-15-.36-30,0-45,.12-5.25-1.79-7.48-6.5-9.59-37.05-16.6-56.37-45.53-57-86-.64-41.28-.56-82.58,0-123.86.62-48.49,32.68-85.55,79.13-92.63C939.26,74.71,982,101,995.6,142.9a107.35,107.35,0,0,1,4.93,31.25q.83,61.46.12,122.92c-.48,40.92-19.72,70.17-57.27,86.7-5.49,2.42-6.44,5.43-6.4,10.58.18,23.77.08,47.54.08,71.31Z"/></svg>