<svg id="Layer_1" data-name="Layer 1" xmlns="http://www.w3.org/2000/svg" viewBox="0 0 1065.16 1065.16"><defs><style>.cls-1{fill:#fff;}</style></defs><path class="cls-1" d="M70.07,533.51c-2.3-2.64-4-4.57-5.69-6.52-24.64-28.86-19.53-67.4,11.73-89.19,37.44-26.12,78.65-43.13,123.72-50.21,7.77-1.22,10.33-4.62,11.86-11.52Q223.12,324.46,235.28,273c1.64-6.89,1.32-11-5.8-15.21-22.75-13.46-32.67-39.4-26-64.4,6.56-24.52,28.61-42,55-42.77,18.94-.54,37.9-.15,56.85-.15q140.47,0,281,0c37.13.05,64.27,27.78,61.19,62.74-2.08,23.51-15.26,39.6-37.11,50l37.81,188.66h57.53c0-21.27.48-42-.13-62.67-.72-24.59,7.64-44.94,25.62-61.64,8.16-7.58,15.74-15.79,23.79-23.5,9.29-8.89,20.21-9.45,27.51-1.71s6.67,17.52-2.21,26.67c-8.54,8.8-17.27,17.42-26.06,26s-13.08,18.53-12.92,30.84c.28,21.46.08,42.92.08,65.54h13c58.72,0,117.44-.34,176.16.12,52.77.42,93.28,35.08,102,86.46,1.1,6.55,1.12,13.32,1.14,20q.15,62.43,0,124.87c-.08,52.42-28.1,89.78-78.76,103.81-7.53,2.08-8.57,7-10.41,12.45-25.28,75-99.58,125.86-178.44,122.08-75.25-3.6-138.87-51-163.57-122.37-2.28-6.61-5.1-9.29-12.43-9.23-43.85.36-87.7.27-131.56.08-6.16,0-9.82,1.48-13.11,7.37C406.86,884,332.56,926.67,233.15,923.73c-105-3.1-200.4-88-217.65-192q-17.79-107.25,50-192.12C66.82,537.88,68.11,536.09,70.07,533.51ZM446.69,668c-4.48-42.19-19.11-77.75-47.14-111.22-5.58,6.69-9.82,12.89-15.16,17.91-7.95,7.46-17.94,7-24.91-.13s-7.08-17.27.35-25c5.1-5.29,11.27-9.55,18-15.11-34.09-27.86-69.76-42.88-111.83-46.71,0,7.25.16,13.47,0,19.68-.41,12.61-7,19.87-17.69,19.84S231,520,230.4,507.35c-.27-6.18-.05-12.37-.05-19.4-41.93,3.86-77.34,18.95-110.78,46.12C125.16,539,130.51,543,135,547.79c7.81,8.26,8,18.84,1,25.91s-17.75,7.17-25.85-.74c-4.72-4.6-8.18-10.48-13-16.88C69.1,591,53.63,626.39,50,668.28c8.36,0,15.41-.53,22.35.13,10.93,1,17.32,8.33,17,18.3s-7.16,16.49-18.23,16.94c-6.83.28-13.69.05-21.34.05C54,746.2,68.92,781.86,96.76,815.45c5.07-6.13,8.67-11.41,13.18-15.75,8.28-8,18.73-8.2,25.88-1.24s7.14,17.69-.62,25.89c-4.5,4.75-10,8.54-16,13.52,33.85,27.67,69.21,42.55,111,46.52,0-7.72-.34-14.31.07-20.86C231,852,238.13,844.85,248.35,845s17,7.37,17.36,19.06c.23,6.48,0,13,0,19.33,33.69,1,92.53-23.89,109.67-46.39-4.56-4-9.63-7.9-13.95-12.47-8.08-8.57-8.33-18.47-1.2-25.85s17.06-7.42,25.91.24c5.21,4.52,10.14,9.38,15.61,14.47,25.93-32.55,41.37-67.84,44.81-109.79-7.32,0-13.54.14-19.75,0-12-.32-19.08-6.59-19.42-16.88-.36-10.8,6.81-18,19.07-18.65C432.71,667.67,439,668,446.69,668Zm87.7-216.65c-4.57,5-9.11,10.41-14.17,15.3-8.89,8.59-19.22,9.19-26.67,2s-7.37-18,1.15-26.66q30-30.63,60.58-60.75c8.16-8.05,18.7-8.44,25.93-1.76,7.63,7.05,7.85,18.23-.39,26.71-5.89,6.08-12.83,11.15-18.05,15.61l56.62,56.57c1.38-6,5-12.56,3.87-18.2-11.92-61.91-24.64-123.66-36.89-185.51-1.25-6.3-3.79-8.36-10.28-8.35q-147.09.3-294.17,0c-6.13,0-9.37,1.3-10.57,8.05-1.94,10.93-5.16,21.63-7.72,32.45-5.94,25.16-11.81,50.33-18.22,77.67,10.05,0,18.53-.45,26.93.13a229,229,0,0,1,26.47,3.44Q444.27,415.34,515,545.39c3,5.57,6.14,8.26,12.76,8,13-.53,26,.25,39-.42,3.67-.19,8.61-2.59,10.51-5.55,7.2-11.19,13.39-23,19.64-34.08ZM965.05,748.75c26.33-8.37,43.14-32.29,43.26-61.82.16-43.45-.13-86.91-.38-130.37-.22-41.48-27.74-69.35-69.1-69.44-92.11-.19-184.22,0-276.33-.22-6.88,0-10.6,2.2-13.89,8.14-14,25.31-29.16,50-42.6,75.63-7,13.33-16.23,19-31.06,18-13.08-.87-26.27-.19-39.91-.19,3.53,14.52,6.89,27,9.58,39.65,8.82,41.43-12.61,70.77-54.73,75.76-2.79.32-7.07,3.19-7.53,5.5-2.9,14.46-4.91,29.11-7.25,43.9H601.28C591,648.7,672.05,559.4,772.87,553.19,868.7,547.29,973.39,628.54,965.05,748.75ZM783.68,593.85C703,594.06,637.78,659.5,638,740c.19,80.93,65.87,145.16,149,145.67,76.84.47,142.94-67.12,142.7-145.93C929.38,658.89,864.1,593.64,783.68,593.85ZM484.77,666.77c19,2,30.21-10.23,26.55-28.95C474.13,447.69,260.09,358.16,98.75,465.25c-16.71,11.09-17.46,28-1.85,41.16C245.48,383.28,466.9,475.81,484.77,666.77Zm-54.45-436h10c52.74,0,105.48.09,158.22-.11,13.79-.05,23.18-9.21,23.38-21.68.21-12.27-9.21-21.75-22.67-22.73-2.59-.19-5.2-.08-7.8-.08q-162.12,0-324.25.07c-5.13,0-10.56.18-15.33,1.8-14.68,5-20.25,23.64-9.26,34.22,5.17,5,14.28,8.06,21.66,8.15C319.63,231,375,230.73,430.32,230.73Z"/><path class="cls-1" d="M140.21,685.46a108.19,108.19,0,1,1,216.38,1.93c-.39,59-49.31,107.14-108.69,107C188.19,794.34,140,745.54,140.21,685.46Zm107.67-71.87a72,72,0,0,0-72,72.24c0,40.28,32.89,73.2,72.84,72.82A73.05,73.05,0,0,0,320.92,685C320.57,645.31,288,613.45,247.88,613.59Z"/><path class="cls-1" d="M865.63,740.83A81.59,81.59,0,0,1,783.94,822c-46.25,0-82.75-36.76-82.3-82.85a81.41,81.41,0,0,1,82.8-81.13C830.18,658.56,865.9,695,865.63,740.83Zm-35.69-.71c-.08-26.3-20.47-46.52-46.76-46.37-25.64.15-45.73,20.41-45.78,46.18-.06,26.14,20.47,46.52,46.74,46.39A45.82,45.82,0,0,0,829.94,740.12Z"/></svg>