<svg id="Layer_1" data-name="Layer 1" xmlns="http://www.w3.org/2000/svg" viewBox="0 0 1065.16 1065.16"><defs><style>.cls-1{fill:#fff;}</style></defs><path class="cls-1" d="M299.7,68.06c10,4.67,16.23,12.84,21.33,22.38,6.38,12,13.59,23.44,20.16,35.28,8.12,14.65,4.53,30-8.54,37.73-13.36,7.91-28.82,3.3-37.62-11.48-7.23-12.15-14.17-24.47-21.23-36.71-13-22.52-10.15-34,11.72-47.2Z"/><path class="cls-1" d="M725,68.06c1.18.76,2.31,1.64,3.55,2.28,15.27,8,20.28,22.86,12,38s-17.06,30.29-26.08,45.13c-8.3,13.67-23.78,17.63-36.65,10-12.51-7.41-16.74-22.55-9.33-36.17,8.45-15.51,17.07-31,26.71-45.77,3.6-5.52,10.3-9,15.59-13.44Z"/><path class="cls-1" d="M51.61,461.45c7.06-15.3,19.17-20.7,35.64-19.68,14.09.88,28.28.05,42.42.23,16.46.21,28.2,11.41,28.2,26.55s-11.69,26.31-28.21,26.52c-14.14.18-28.33-.64-42.42.23-16.45,1-28.59-4.34-35.63-19.68Z"/><path class="cls-1" d="M639.44,813.77H531.83v-8.43c0-36.32-.13-72.64.18-109a25.18,25.18,0,0,1,3.91-13c30.73-46.54,61.24-93.24,93-139.06,9.29-13.41,22.35-24.21,33.79-36.11,6.13-6.39,12.56-12.49,18.74-18.84,12.25-12.6,13.06-28.23,2.14-39.36-11.14-11.36-27.11-10.63-40,2.11-10.46,10.36-20.63,21-32,32.63-10.64-10.84-20.42-20.95-30.36-30.91-16-16-29.74-16-45.69,0-9.79,9.8-19.4,19.79-30.84,31.49-7-7.58-13.31-14.42-19.58-21.34-26.84-29.62-39.12-29.86-66.45.3-5.95,6.55-12.18,12.84-19.23,20.26l-21.75-21.65c-4.4-4.37-8.64-8.92-13.24-13.07-11.59-10.47-27-10.37-37.43,0s-10.75,26.1,0,37.39c14.69,15.36,30,30.1,44.9,45.29a96.12,96.12,0,0,1,11.19,13.63q45.57,68,90.74,136.33A28.48,28.48,0,0,1,478.47,697c.36,38.63.2,77.27.2,116.48H369.84c-1.51-7.58-2.83-15.35-4.61-23-9.59-41.2-28.63-77.41-58.88-107.09-39.61-38.86-68.31-84.06-82.88-137.85C177.56,376.08,287.33,210.45,451.93,181c161.34-28.83,314.14,76.69,341.29,238.69,15.73,93.82-10.49,176.91-74.28,247.81-14,15.57-29.12,30.28-41.84,46.82C654.88,743.24,642.52,776.47,639.44,813.77Z"/><path class="cls-1" d="M372.37,867.62H637.85c.53,21.23,2.24,42.25-7.51,61.75-14.8,29.61-39.29,45.06-72.15,45.77-35.11.75-70.26.65-105.38.06-45.93-.78-79.28-34.51-80.41-80.45C372.18,886,372.37,877.14,372.37,867.62Z"/><path class="cls-1" d="M557.61,505.73l19.54,19.58c-23.63,35.49-47.25,71-71.41,107.26-1.85-2.22-3.42-3.79-4.63-5.6-21.27-31.85-42.38-63.82-63.87-95.53-3.35-4.94-3.2-7.91,1.19-11.78,4.57-4,8.49-8.82,14.11-14.78,8,8.58,15,16,21.88,23.63,23.7,26.53,37.79,26.78,62-.31C543.08,520.75,550.12,513.65,557.61,505.73Z"/><path class="cls-1" d="M905.54,495.09c-8.56,0-17.13.19-25.69,0-15.85-.42-27.32-11.8-27.21-26.71.11-14.51,11.44-26,26.71-26.28,17.71-.34,35.44-.38,53.14,0,15.18.33,26.45,12.12,26.33,26.64s-11.38,25.82-26.71,26.3C923.26,495.31,914.4,495.09,905.54,495.09Z"/><path class="cls-1" d="M209.46,279c-.47,22.63-19.63,35.84-36.39,27.66-17.92-8.74-35.16-19.09-52-29.89-11.71-7.54-14-22.87-6.86-34.57,6.84-11.28,21.22-16.62,33-10.47,17.47,9.09,34.41,19.22,51.21,29.51C206.27,266,209.51,274,209.46,279Z"/><path class="cls-1" d="M801.17,278.92c.27-6.53,4.4-14.13,12.52-19,15.66-9.35,31.36-18.66,47.43-27.27a26,26,0,0,1,35.3,9.83c7.27,12.37,4,27.67-8.68,35.59C872,287.88,856,297.29,839.56,305.8,821.33,315.22,800.79,302.06,801.17,278.92Z"/><path class="cls-1" d="M209.35,658.3c-.16,6.1-4.19,13.79-12.3,18.66-15.63,9.39-31.35,18.67-47.4,27.31-13.46,7.25-28.8,2.47-35.86-10.23-7-12.55-3.4-27.5,9.46-35.42,15.52-9.56,31.27-18.83,47.43-27.24C188.91,621.89,209.54,634.77,209.35,658.3Z"/><path class="cls-1" d="M827.68,627.09c4.9,1.8,10.11,3,14.63,5.51,14.43,7.94,28.69,16.19,42.84,24.63,14.42,8.59,19,23.66,11.5,36.92s-23.09,17.32-37.52,9.32c-15.44-8.56-30.77-17.33-45.77-26.62a25.53,25.53,0,0,1-11.13-30C805.81,635.63,815.8,628.14,827.68,627.09Z"/></svg>