<svg id="Layer_1" data-name="Layer 1" xmlns="http://www.w3.org/2000/svg" viewBox="0 0 1065.16 1065.16"><defs><style>.cls-1{fill:#fff;}</style></defs><path class="cls-1" d="M476.24,906.13H655c1.54-19.42,7.07-37.41,21.6-50.28,9.52-8.43,21.63-13.9,32.44-20.92,3.88-2.53,8.48-5,10.8-8.74,32.73-52.36,107.49-52.08,140,.64,1.65,2.69,4,5.78,6.76,6.84,37.65,14.53,51.74,31.82,58.19,72.89,4.44,0,9-.19,13.63,0,9.4.48,15.23,5.89,15.38,15.23q.45,29.38,0,58.79c-.14,9.39-5.9,14.83-15.22,15.44-2.47.17-5,.05-7.46.05H81.22c-19.14,0-23-3.8-23-22.74,0-16.17-.07-32.35,0-48.52.08-12.89,5.31-18.22,18-18.29,20.53-.1,41.05,0,61.58,0h9.48V519.14c-5.08,4-9,7.34-13.1,10.4-8.16,6.1-15.89,5.84-22.3-1.65q-25.2-29.38-49.75-59.32c-6.93-8.48-5.19-16,4.53-24q76-62.5,152.06-125Q342.42,218.12,466.05,116.58C492,95.31,520,95.17,545.73,116.23q68.58,56.1,137,112.37a11.32,11.32,0,0,0,1.85.78c.23-2.84.6-5.37.61-7.9,0-29.24,0-58.47,0-87.71,0-21.69,11.78-33.45,33.44-33.47q56-.08,112,0c22,0,33.71,11.9,33.72,34.2,0,77.76.13,155.52-.18,233.28,0,7.7,2.44,12.37,8.31,17.06,24.3,19.4,48.19,39.32,72.2,59.07,11.64,9.58,12.24,16.55,2.44,28.26-14.36,17.17-28.8,34.29-43.16,51.47-10.7,12.8-16.82,13.45-29.63,3-2.77-2.25-5.62-4.4-10-7.78v11.73q0,109.64,0,219.27c0,3.11.31,6.3-.27,9.31-1.55,8-6.58,12.84-14.82,12.74s-13.17-5-14.54-13.06c-.52-3-.21-6.2-.21-9.31q0-123.17.14-246.34c0-6.51-1.74-10.81-6.83-15q-158-129.48-315.64-259.42c-5.83-4.8-8.84-2.57-13.21,1C400.79,310.66,303,392,203.86,471.61c-19.92,16-27.17,31.87-26.86,57.32,1.49,122.22.67,244.46.67,366.7v10.45h59.71V895.3q0-162.82,0-325.65c0-17.15,4.3-21.45,21.46-21.45q98.43,0,196.86,0c15.87,0,20.52,4.65,20.52,20.52q0,162.82,0,325.65ZM446,578.72H268V906H446ZM125.68,497.91c2.2-1.74,3.43-2.68,4.63-3.67L492.1,197c11.76-9.66,16.17-9.78,27.62-.38q109.2,89.68,218.36,179.4L886.49,498l31.17-37.2c-2.45-2.22-4-3.73-5.62-5.09Q720,297.9,527.91,140.14c-16.25-13.34-27.45-13.23-43.92.3Q316.42,278.1,148.87,415.76c-18,14.75-35.89,29.53-54.51,44.85ZM88.52,965.6H923.33V936.88H88.52ZM715.1,130.32v9.94c0,35.12.18,70.23-.15,105.35-.06,6.81,1.76,11.32,7.2,15.73,35,28.33,69.72,57.06,104.54,85.64,2.17,1.78,4.47,3.41,7.08,5.4V130.32ZM685.64,906H893.82c-1-22.94-16.67-40.84-38.89-43.61-8.84-1.09-13.79-4.82-17.26-12.94-8.91-20.85-25.19-32.28-47.89-32.3s-39,11.39-47.94,32.21c-3.48,8.1-8.4,11.93-17.24,13C702.48,865.05,686.77,882.93,685.64,906Z"/><path class="cls-1" d="M656.18,548.2q49.46,0,98.9,0c14.71,0,19.71,4.93,19.72,19.45q.06,84.92,0,169.83c0,14.69-4.95,19.71-19.46,19.72q-99.84,0-199.66,0c-14.72,0-19.7-4.92-19.71-19.46q0-84.91,0-169.83c0-14.73,4.9-19.69,19.45-19.71Q605.79,548.15,656.18,548.2ZM566.6,578.26v58.89h73.14V578.26Zm104.13,58.86h73.48V578.56H670.73Zm-104.5,89.59h73.48V668.14H566.23Zm178.2.21V668.25H671v58.67Z"/></svg>