<svg id="Layer_1" data-name="Layer 1" xmlns="http://www.w3.org/2000/svg" viewBox="0 0 1065.16 1065.16"><defs><style>.cls-1{fill:#fff;}</style></defs><path class="cls-1" d="M1003.25,780.54C996.31,799.32,982.37,806,963,805.4c-24.58-.71-49.2,0-73.8-.31-6.18-.08-8.8,1.86-10.93,7.84-18.61,52.19-65.33,85.32-119,84.94-53.89-.38-99.38-33-117.91-85-2.09-5.89-4.73-7.83-10.94-7.8q-84.5.36-169-.05c-7.25,0-9.78,2.68-12,9-17.61,49.61-61.2,81.43-113.91,83.65-50.17,2.12-97.94-26.14-117.48-73.53-6.83-16.59-15-20.35-30.87-19.24-18.69,1.31-37.54.62-56.31.19-19-.43-32.05-12.12-33.12-28.74-1.27-19.46,11.73-33.37,32.62-34.06,15.19-.5,30.42-.12,45.64-.13h29.73C217,723.59,225,705.11,237.5,690.56c62.63-72.65,180-50,211.7,40.47,3.21,9.17,7.2,11.42,16.24,11.36q81.09-.61,162.18,0c7.58,0,11.08-1.81,13.66-9.45,17.45-51.71,64.83-85.65,118.5-85.67,53.92,0,101.65,34.43,118.89,86.53,2.29,6.94,5.45,8.74,12.2,8.55,16.14-.43,32.3-.14,49.83-.14V732.05c0-47.6.15-95.19-.22-142.79a27.24,27.24,0,0,0-5.06-14.84C924.18,559,912,544.28,900.58,529c-3.86-5.19-8-7.15-14.48-7.13-75.76.23-151.51.15-227.26.14-27.69,0-38.89-11.15-38.9-38.8q0-99.55,0-199.13V271.18H606.87q-235,0-470.06-.07c-5.77,0-11.75-.28-17.28-1.76-14.27-3.82-22.9-17.27-21.77-32.67A30.23,30.23,0,0,1,124.44,209a105.87,105.87,0,0,1,12.6-.56q252.51,0,505,0c29.76,0,40.52,10.69,40.53,40.15v22.61h11c38.52,0,77.06.5,115.57-.21,18.51-.34,30.34,7.1,38.44,23.54,25.17,51,51.2,101.64,76.35,152.68,9.64,19.56,20.81,37.88,34.71,54.69Q975,521.7,990.13,542.55c5,6.94,8.79,14.84,13.12,22.31ZM858.79,458.68a24.62,24.62,0,0,0-1-3.67C838.33,416.29,819,377.53,799.2,339c-1.4-2.72-6.36-5.06-9.68-5.1-33.34-.37-66.68-.24-100-.19a53.22,53.22,0,0,0-6.45.77V458.68ZM760.23,710.29c-34.4-.26-62.26,27-63,61.69-.75,33.79,27.47,62.68,61.68,63.13,34.68.46,63.41-27.67,63.59-62.25C822.63,738.71,794.61,710.54,760.23,710.29Zm-429,0a62.43,62.43,0,1,0,62.65,61.92A62.43,62.43,0,0,0,331.19,710.28Z"/><path class="cls-1" d="M173.18,522.78q-63.14,0-126.26,0c-5.15,0-10.47,0-15.43-1.23-13-3.12-22.58-15.71-22.89-29.21S17,466,30.07,462.05a50.85,50.85,0,0,1,14.33-1.91q129.18-.15,258.36,0A51.19,51.19,0,0,1,317.09,462c13.72,4.08,22.73,18,21.47,32.12a30.9,30.9,0,0,1-27.48,28.16,117.72,117.72,0,0,1-12.61.45Q235.83,522.8,173.18,522.78Z"/><path class="cls-1" d="M224.19,337.07c44,0,88-.11,132.07.07,18.93.07,32.05,11.55,33.25,28.3,1.35,19-11.9,33.63-31.51,34.09-16.17.37-32.36.1-48.55.1q-107.31,0-214.61,0c-18.06,0-30.65-9.13-34.06-24.26-4.5-20,9.25-37.77,30.37-38.11,29.13-.46,58.26-.15,87.4-.17Z"/><path class="cls-1" d="M163.1,646.28c-24,0-47.93.36-71.88-.12-16.94-.34-28.91-11.61-31.06-27.78a30.49,30.49,0,0,1,21.24-33,43.33,43.33,0,0,1,12.44-1.62c46.29-.11,92.59-.29,138.89,0,24.4.16,39.4,20,32,41.48-4.45,12.93-16.15,20.93-31.73,21.06-23.31.2-46.62.05-69.93.05Z"/></svg>